<svg width="351" height="91" viewBox="0 0 351 91" fill="none" xmlns="http://www.w3.org/2000/svg">
<g opacity="0.3">
<path d="M123.495 70.1875C123.495 70.1875 121.811 79.0006 113.35 86.6712L117.081 90.2013C117.081 90.2013 126.311 82.3415 127.26 73.8673L123.495 70.1875Z" fill="#EF2E7D"/>
<path d="M247.605 -2.92692e-06C247.605 -2.92692e-06 252.443 9.80767 264.794 15.4261L261.605 21.1911C261.605 21.1911 248.297 15.6668 244.427 5.95707L247.605 -2.92692e-06Z" fill="#5FC3F0"/>
<path d="M201.886 43.8526L204.342 45.3196L206.798 43.7825L206.328 46.971L208.315 49.1964L205.569 49.7001L204.341 52.6121L203.113 49.7352L200.367 49.3092L202.355 47.0275L201.886 43.8526Z" fill="#5FC3F0"/>
<path d="M145.249 22.7911L147.125 25.6705L150.134 25.3707L148.468 28.491L149.594 31.9191L146.688 30.9686L144.374 33.3866L144.245 29.6777L141.689 27.7447L144.515 26.4035L145.249 22.7911Z" fill="#F8E906"/>
<path d="M304.799 46.0185L307.255 47.4855L309.711 45.9484L309.241 49.137L311.228 51.3623L308.482 51.866L307.253 54.778L306.025 51.9011L303.28 51.4751L305.267 49.1934L304.799 46.0185Z" fill="#F8E906"/>
<path d="M344.57 23.2055L347.026 24.6734L349.483 23.1362L349.013 26.3248L351 28.5501L348.254 29.0531L347.025 31.9658L345.798 29.0882L343.052 28.6629L345.039 26.3812L344.57 23.2055Z" fill="#5FC3F0"/>
<path d="M3.56038 34.6824L5.43575 37.5618L8.44519 37.2628L6.77823 40.3832L7.90394 43.8104L4.99834 42.86L2.68498 45.2779L2.55532 41.5706L7.43069e-06 39.6368L2.82625 38.2956L3.56038 34.6824Z" fill="#EF2E7D"/>
<path d="M60.2046 72.5125L62.0806 75.3919L65.09 75.0921L63.4231 78.2132L64.5494 81.6404L61.6432 80.6901L59.3298 83.108L59.2001 79.4006L56.6448 77.4669L59.4711 76.1257L60.2046 72.5125Z" fill="#5FC3F0"/>
</g>
</svg>
