<svg width="9" height="8" viewBox="0 0 9 8" fill="none" xmlns="http://www.w3.org/2000/svg">
<path fill-rule="evenodd" clip-rule="evenodd" d="M3.92147 0.151666C4.09807 0.0522353 4.29733 0 4.5 0C4.70267 0 4.90193 0.0522353 5.07853 0.151666C5.25514 0.251097 5.40314 0.394367 5.50825 0.567653L5.50938 0.56952L5.50938 0.569523L8.83878 6.12768L8.84201 6.13308L8.84197 6.13311C8.94494 6.31142 8.99942 6.51359 8.99999 6.7195C9.00057 6.92541 8.94722 7.12788 8.84526 7.30676C8.74329 7.48565 8.59626 7.63472 8.41879 7.73915C8.24133 7.84357 8.03961 7.89971 7.83372 7.90197L7.8294 7.90202V7.90199H1.1706H1.16628L1.16628 7.90197C0.960385 7.89971 0.75867 7.84357 0.581206 7.73915C0.40374 7.63472 0.25671 7.48565 0.154744 7.30676C0.052777 7.12788 -0.000571921 6.92541 4.62392e-06 6.7195C0.000581169 6.51359 0.0550632 6.31142 0.15803 6.13311L0.16118 6.12765L0.161223 6.12768L3.49062 0.569523L3.49174 0.56765L3.49175 0.567653C3.59686 0.394367 3.74486 0.251097 3.92147 0.151666ZM4.5 0.786161C4.43244 0.786161 4.36602 0.803573 4.30715 0.836717C4.24855 0.869712 4.19939 0.91719 4.16439 0.974604L4.16391 0.975379L0.83754 6.5285C0.804058 6.58739 0.786353 6.65394 0.786163 6.7217C0.785971 6.79034 0.803754 6.85782 0.837743 6.91745C0.871732 6.97708 0.920742 7.02677 0.979897 7.06158C1.03854 7.09609 1.10512 7.11477 1.17312 7.11583H7.82688C7.89488 7.11477 7.96146 7.09609 8.0201 7.06158C8.07926 7.02677 8.12827 6.97708 8.16226 6.91745C8.19625 6.85782 8.21403 6.79034 8.21384 6.7217C8.21365 6.65393 8.19594 6.58738 8.16246 6.5285L4.83608 0.975379L4.8356 0.97458C4.80059 0.917177 4.75144 0.869708 4.69284 0.836717C4.63398 0.803573 4.56756 0.786161 4.5 0.786161ZM4.49999 2.39886C4.71708 2.39886 4.89307 2.57485 4.89307 2.79194V4.36426C4.89307 4.58135 4.71708 4.75734 4.49999 4.75734C4.2829 4.75734 4.10691 4.58135 4.10691 4.36426V2.79194C4.10691 2.57485 4.2829 2.39886 4.49999 2.39886ZM4.49999 5.54353C4.2829 5.54353 4.10691 5.71952 4.10691 5.93661C4.10691 6.1537 4.2829 6.32969 4.49999 6.32969H4.50971C4.7268 6.32969 4.90279 6.1537 4.90279 5.93661C4.90279 5.71952 4.7268 5.54353 4.50971 5.54353H4.49999Z" fill="white"/>
</svg>
