<svg width="232" height="60" viewBox="0 0 232 60" fill="none" xmlns="http://www.w3.org/2000/svg">
<g opacity="0.43">
<path d="M150.373 13.2285C150.373 13.2285 151.487 7.40334 157.079 2.33329L154.613 -3.49219e-07C154.613 -3.49219e-07 148.512 5.19511 147.885 10.7963L150.373 13.2285Z" fill="#EF2E7D"/>
<path d="M68.3408 59.6203C68.3408 59.6203 65.1432 53.1377 56.9792 49.4242L59.0876 45.6137C59.0876 45.6137 67.8835 49.2651 70.4417 55.6829L68.3408 59.6203Z" fill="#5FC3F0"/>
<path d="M98.5597 30.6351L96.9365 29.6654L95.3132 30.6814L95.6234 28.5739L94.3103 27.103L96.1255 26.7701L96.9373 24.8454L97.7488 26.7469L99.564 27.0285L98.25 28.5366L98.5597 30.6351Z" fill="#5FC3F0"/>
<path d="M135.995 44.5561L134.755 42.6529L132.766 42.851L133.867 40.7886L133.123 38.5228L135.044 39.151L136.573 37.5528L136.659 40.0043L138.348 41.2819L136.48 42.1684L135.995 44.5561Z" fill="#F8E906"/>
<path d="M30.5376 29.2035L28.9143 28.2339L27.291 29.2499L27.6012 27.1423L26.2882 25.6714L28.1033 25.3385L28.9152 23.4138L29.7271 25.3153L31.5418 25.5969L30.2279 27.105L30.5376 29.2035Z" fill="#F8E906"/>
<path d="M4.24981 44.2822L2.62639 43.312L1.00253 44.328L1.31319 42.2204L8.31037e-08 40.7496L1.8149 40.4171L2.62726 38.4919L3.43832 40.3939L5.25365 40.675L3.94002 42.1831L4.24981 44.2822Z" fill="#5FC3F0"/>
<path d="M229.647 36.6964L228.407 34.7931L226.418 34.9908L227.52 32.9283L226.776 30.663L228.696 31.2912L230.225 29.693L230.311 32.1435L232 33.4216L230.132 34.3081L229.647 36.6964Z" fill="#EF2E7D"/>
<path d="M192.207 11.6919L190.967 9.78867L188.978 9.98681L190.079 7.92384L189.335 5.65858L191.256 6.28675L192.785 4.68855L192.871 7.13902L194.56 8.41716L192.692 9.30366L192.207 11.6919Z" fill="#5FC3F0"/>
</g>
</svg>
